<svg xmlns="http://www.w3.org/2000/svg" xmlns:xlink="http://www.w3.org/1999/xlink" width="51.688" height="49.028" viewBox="0 0 51.688 49.028"><defs><style>.a{fill:#464646;}.b{filter:url(#g);}.c{filter:url(#e);}.d{filter:url(#c);}.e{filter:url(#a);}</style><filter id="a" x="0" y="6.205" width="51.688" height="35.731" filterUnits="userSpaceOnUse"><feOffset dy="3" input="SourceAlpha"/><feGaussianBlur stdDeviation="3" result="b"/><feFlood flood-opacity="0.161"/><feComposite operator="in" in2="b"/><feComposite in="SourceGraphic"/></filter><filter id="c" x="7.092" y="12.411" width="38.39" height="20.66" filterUnits="userSpaceOnUse"><feOffset dy="3" input="SourceAlpha"/><feGaussianBlur stdDeviation="3" result="d"/><feFlood flood-opacity="0.161"/><feComposite operator="in" in2="d"/><feComposite in="SourceGraphic"/></filter><filter id="e" x="7.092" y="0" width="37.504" height="26.865" filterUnits="userSpaceOnUse"><feOffset dy="3" input="SourceAlpha"/><feGaussianBlur stdDeviation="3" result="f"/><feFlood flood-opacity="0.161"/><feComposite operator="in" in2="f"/><feComposite in="SourceGraphic"/></filter><filter id="g" x="10.638" y="14.184" width="32.184" height="34.844" filterUnits="userSpaceOnUse"><feOffset dy="3" input="SourceAlpha"/><feGaussianBlur stdDeviation="3" result="h"/><feFlood flood-opacity="0.161"/><feComposite operator="in" in2="h"/><feComposite in="SourceGraphic"/></filter></defs><g transform="translate(9 6)"><g class="e" transform="matrix(1, 0, 0, 1, -9, -6)"><path class="a" d="M31.688,17.731H2a2,2,0,0,1-2-2V2A2,2,0,0,1,2,0H31.688a2,2,0,0,1,2,2V15.731A2,2,0,0,1,31.688,17.731ZM6.319,3.546a1,1,0,0,0-1,1v8.639a1,1,0,0,0,1,1h21.05a1,1,0,0,0,1-1V4.546a1,1,0,0,0-1-1Z" transform="translate(9 12.21)"/></g><g class="d" transform="matrix(1, 0, 0, 1, -9, -6)"><rect class="a" width="20.39" height="2.66" rx="1" transform="translate(16.09 18.41)"/></g><g class="c" transform="matrix(1, 0, 0, 1, -9, -6)"><path class="a" d="M19.5,8.865H0V0H19.5V8.864ZM2.66,2.659V6.206H16.845V2.659Z" transform="translate(16.09 6)"/></g><g class="b" transform="matrix(1, 0, 0, 1, -9, -6)"><rect class="a" width="14.185" height="16.844" rx="2" transform="translate(19.64 20.18)"/></g><rect class="a" width="8.865" height="10.638" rx="2" transform="translate(13.298 17.73)"/></g></svg>